<mxfile host="app.diagrams.net" modified="2021-10-31T17:40:14.950Z" agent="5.0 (Windows NT 10.0; Win64; x64) AppleWebKit/537.36 (KHTML, like Gecko) Chrome/95.0.4638.54 Safari/537.36 Edg/95.0.1020.40" etag="ebhFWmOyGBhTZv52N-xG" version="15.6.3" type="github">
  <diagram id="kgpKYQtTHZ0yAKxKKP6v" name="Page-1">
    <mxGraphModel dx="918" dy="512" grid="0" gridSize="10" guides="1" tooltips="1" connect="1" arrows="1" fold="1" page="1" pageScale="1" pageWidth="850" pageHeight="1100" math="0" shadow="0">
      <root>
        <mxCell id="0" />
        <mxCell id="1" parent="0" />
        <mxCell id="Y4GT3gBi2JhhcLNgpZ-k-1" value="웹사이트&lt;br&gt;접속기" style="rounded=0;whiteSpace=wrap;html=1;" parent="1" vertex="1">
          <mxGeometry x="226" y="194" width="70" height="30" as="geometry" />
        </mxCell>
        <mxCell id="Y4GT3gBi2JhhcLNgpZ-k-2" value="파이어 베이스" style="rounded=0;whiteSpace=wrap;html=1;" parent="1" vertex="1">
          <mxGeometry x="410.5" y="192" width="81" height="30" as="geometry" />
        </mxCell>
        <mxCell id="Y4GT3gBi2JhhcLNgpZ-k-4" value="" style="endArrow=none;dashed=1;html=1;rounded=0;entryX=0.5;entryY=1;entryDx=0;entryDy=0;startArrow=none;" parent="1" source="Y4GT3gBi2JhhcLNgpZ-k-21" target="Y4GT3gBi2JhhcLNgpZ-k-1" edge="1">
          <mxGeometry width="50" height="50" relative="1" as="geometry">
            <mxPoint x="261" y="490" as="sourcePoint" />
            <mxPoint x="450" y="360" as="targetPoint" />
          </mxGeometry>
        </mxCell>
        <mxCell id="Y4GT3gBi2JhhcLNgpZ-k-5" value="" style="endArrow=none;dashed=1;html=1;rounded=0;entryX=0.5;entryY=1;entryDx=0;entryDy=0;startArrow=none;" parent="1" source="Y4GT3gBi2JhhcLNgpZ-k-11" target="Y4GT3gBi2JhhcLNgpZ-k-2" edge="1">
          <mxGeometry width="50" height="50" relative="1" as="geometry">
            <mxPoint x="385" y="490" as="sourcePoint" />
            <mxPoint x="450" y="360" as="targetPoint" />
          </mxGeometry>
        </mxCell>
        <mxCell id="Y4GT3gBi2JhhcLNgpZ-k-7" value="" style="endArrow=classic;html=1;rounded=0;" parent="1" edge="1">
          <mxGeometry width="50" height="50" relative="1" as="geometry">
            <mxPoint x="260" y="270" as="sourcePoint" />
            <mxPoint x="450" y="270" as="targetPoint" />
          </mxGeometry>
        </mxCell>
        <mxCell id="Y4GT3gBi2JhhcLNgpZ-k-8" value="&lt;font style=&quot;font-size: 8px;&quot;&gt;url을 요쳥&lt;/font&gt;" style="text;html=1;strokeColor=none;fillColor=none;align=center;verticalAlign=middle;whiteSpace=wrap;rounded=0;fontSize=8;" parent="1" vertex="1">
          <mxGeometry x="254" y="247" width="84" height="20" as="geometry" />
        </mxCell>
        <mxCell id="Y4GT3gBi2JhhcLNgpZ-k-11" value="" style="rounded=0;whiteSpace=wrap;html=1;fontSize=9;" parent="1" vertex="1">
          <mxGeometry x="445" y="276" width="12" height="20" as="geometry" />
        </mxCell>
        <mxCell id="Y4GT3gBi2JhhcLNgpZ-k-13" value="" style="endArrow=none;dashed=1;html=1;rounded=0;entryX=0.5;entryY=1;entryDx=0;entryDy=0;" parent="1" target="Y4GT3gBi2JhhcLNgpZ-k-11" edge="1">
          <mxGeometry width="50" height="50" relative="1" as="geometry">
            <mxPoint x="451" y="490" as="sourcePoint" />
            <mxPoint x="385" y="250" as="targetPoint" />
          </mxGeometry>
        </mxCell>
        <mxCell id="Y4GT3gBi2JhhcLNgpZ-k-16" value="" style="endArrow=classic;html=1;rounded=0;fontSize=9;" parent="1" edge="1">
          <mxGeometry width="50" height="50" relative="1" as="geometry">
            <mxPoint x="448" y="303" as="sourcePoint" />
            <mxPoint x="260" y="303" as="targetPoint" />
          </mxGeometry>
        </mxCell>
        <mxCell id="Y4GT3gBi2JhhcLNgpZ-k-20" value="url 데이터를 보낸다." style="text;html=1;strokeColor=none;fillColor=none;align=center;verticalAlign=middle;whiteSpace=wrap;rounded=0;fontSize=9;" parent="1" vertex="1">
          <mxGeometry x="355" y="296" width="99" height="30" as="geometry" />
        </mxCell>
        <mxCell id="Y4GT3gBi2JhhcLNgpZ-k-21" value="" style="rounded=0;whiteSpace=wrap;html=1;fontSize=9;" parent="1" vertex="1">
          <mxGeometry x="254" y="310" width="14" height="92" as="geometry" />
        </mxCell>
        <mxCell id="Y4GT3gBi2JhhcLNgpZ-k-22" value="" style="endArrow=none;dashed=1;html=1;rounded=0;entryX=0.5;entryY=1;entryDx=0;entryDy=0;" parent="1" target="Y4GT3gBi2JhhcLNgpZ-k-21" edge="1">
          <mxGeometry width="50" height="50" relative="1" as="geometry">
            <mxPoint x="261" y="490" as="sourcePoint" />
            <mxPoint x="261" y="223.9999999999999" as="targetPoint" />
          </mxGeometry>
        </mxCell>
        <mxCell id="Y4GT3gBi2JhhcLNgpZ-k-24" value="" style="endArrow=classic;html=1;rounded=0;fontSize=9;edgeStyle=orthogonalEdgeStyle;" parent="1" edge="1">
          <mxGeometry width="50" height="50" relative="1" as="geometry">
            <mxPoint x="249.97" y="312" as="sourcePoint" />
            <mxPoint x="257" y="407" as="targetPoint" />
            <Array as="points">
              <mxPoint x="226" y="312" />
              <mxPoint x="226" y="407" />
              <mxPoint x="257" y="407" />
            </Array>
          </mxGeometry>
        </mxCell>
        <mxCell id="Y4GT3gBi2JhhcLNgpZ-k-25" value="url에 접속한다.&lt;br&gt;공지사항을 보여준다" style="text;html=1;strokeColor=none;fillColor=none;align=center;verticalAlign=middle;whiteSpace=wrap;rounded=0;fontSize=9;" parent="1" vertex="1">
          <mxGeometry x="122" y="332" width="104" height="30" as="geometry" />
        </mxCell>
        <mxCell id="Y4GT3gBi2JhhcLNgpZ-k-27" value="공지사항 접속" style="text;html=1;strokeColor=none;fillColor=none;align=center;verticalAlign=middle;whiteSpace=wrap;rounded=0;fontSize=9;" parent="1" vertex="1">
          <mxGeometry x="148" y="158" width="68" height="30" as="geometry" />
        </mxCell>
      </root>
    </mxGraphModel>
  </diagram>
</mxfile>
